<svg width="55" height="90" viewBox="0 0 55 90" fill="none" xmlns="http://www.w3.org/2000/svg">
<path d="M1.25 90L0 79L14.25 39.75C15.5 40.9167 16.8542 41.8958 18.3125 42.6875C19.7708 43.4792 21.3333 44.0833 23 44.5L9.25 82.25L1.25 90ZM53.75 90L45.75 82.25L32 44.5C33.6667 44.0833 35.2292 43.4792 36.6875 42.6875C38.1458 41.8958 39.5 40.9167 40.75 39.75L55 79L53.75 90ZM27.5 40C23.3333 40 19.7917 38.5417 16.875 35.625C13.9583 32.7083 12.5 29.1667 12.5 25C12.5 21.75 13.4375 18.8542 15.3125 16.3125C17.1875 13.7708 19.5833 12 22.5 11V0H32.5V11C35.4167 12 37.8125 13.7708 39.6875 16.3125C41.5625 18.8542 42.5 21.75 42.5 25C42.5 29.1667 41.0417 32.7083 38.125 35.625C35.2083 38.5417 31.6667 40 27.5 40ZM27.5 30C28.9167 30 30.1042 29.5208 31.0625 28.5625C32.0208 27.6042 32.5 26.4167 32.5 25C32.5 23.5833 32.0208 22.3958 31.0625 21.4375C30.1042 20.4792 28.9167 20 27.5 20C26.0833 20 24.8958 20.4792 23.9375 21.4375C22.9792 22.3958 22.5 23.5833 22.5 25C22.5 26.4167 22.9792 27.6042 23.9375 28.5625C24.8958 29.5208 26.0833 30 27.5 30Z" fill="#E5E2E3"/>
</svg>
