<svg width="23" height="19" viewBox="0 0 23 19" fill="none" xmlns="http://www.w3.org/2000/svg">
<path d="M18.25 8.75L0.625 2.375L1.5 0L21 7.125C21.4167 7.29167 21.7708 7.58333 22.0625 8C22.3542 8.41667 22.5 8.875 22.5 9.375V16.25C22.5 16.9375 22.2552 17.526 21.7656 18.0156C21.276 18.5052 20.6875 18.75 20 18.75H2.5C1.8125 18.75 1.22396 18.5052 0.734375 18.0156C0.244792 17.526 0 16.9375 0 16.25V11.25C0 10.5625 0.244792 9.97396 0.734375 9.48438C1.22396 8.99479 1.8125 8.75 2.5 8.75H18.25V8.75M20 16.25V16.25V16.25V11.25V11.25V11.25H2.5V11.25V11.25V16.25V16.25V16.25H20V16.25M8.75 15H18.75V12.5H8.75V15V15M5 15C5.35417 15 5.65104 14.8802 5.89062 14.6406C6.13021 14.401 6.25 14.1042 6.25 13.75C6.25 13.3958 6.13021 13.099 5.89062 12.8594C5.65104 12.6198 5.35417 12.5 5 12.5C4.64583 12.5 4.34896 12.6198 4.10938 12.8594C3.86979 13.099 3.75 13.3958 3.75 13.75C3.75 14.1042 3.86979 14.401 4.10938 14.6406C4.34896 14.8802 4.64583 15 5 15V15M2.5 16.25V16.25V16.25V16.25V11.25V11.25V11.25V11.25V11.25V11.25V16.25V16.25V16.25V16.25" fill="#002661"/>
</svg>
