<svg width="45" height="45" viewBox="0 0 45 45" fill="none" xmlns="http://www.w3.org/2000/svg">
<path d="M22.5 45C16.2083 45 10.8854 44.0312 6.53125 42.0938C2.17708 40.1562 0 37.7917 0 35V10C0 7.25 2.19792 4.89583 6.59375 2.9375C10.9896 0.979167 16.2917 0 22.5 0C28.7083 0 34.0104 0.979167 38.4062 2.9375C42.8021 4.89583 45 7.25 45 10V35C45 37.7917 42.8229 40.1562 38.4688 42.0938C34.1146 44.0312 28.7917 45 22.5 45ZM22.5 15.0625C26.2083 15.0625 29.9375 14.5312 33.6875 13.4688C37.4375 12.4062 39.5417 11.2708 40 10.0625C39.5417 8.85417 37.4479 7.70833 33.7188 6.625C29.9896 5.54167 26.25 5 22.5 5C18.7083 5 14.9896 5.53125 11.3438 6.59375C7.69792 7.65625 5.58333 8.8125 5 10.0625C5.58333 11.3125 7.69792 12.4583 11.3438 13.5C14.9896 14.5417 18.7083 15.0625 22.5 15.0625ZM22.5 27.5C24.25 27.5 25.9375 27.4167 27.5625 27.25C29.1875 27.0833 30.7396 26.8438 32.2188 26.5312C33.6979 26.2188 35.0938 25.8333 36.4062 25.375C37.7188 24.9167 38.9167 24.3958 40 23.8125V16.3125C38.9167 16.8958 37.7188 17.4167 36.4062 17.875C35.0938 18.3333 33.6979 18.7188 32.2188 19.0312C30.7396 19.3438 29.1875 19.5833 27.5625 19.75C25.9375 19.9167 24.25 20 22.5 20C20.75 20 19.0417 19.9167 17.375 19.75C15.7083 19.5833 14.1354 19.3438 12.6562 19.0312C11.1771 18.7188 9.79167 18.3333 8.5 17.875C7.20833 17.4167 6.04167 16.8958 5 16.3125V23.8125C6.04167 24.3958 7.20833 24.9167 8.5 25.375C9.79167 25.8333 11.1771 26.2188 12.6562 26.5312C14.1354 26.8438 15.7083 27.0833 17.375 27.25C19.0417 27.4167 20.75 27.5 22.5 27.5ZM22.5 40C24.4167 40 26.3646 39.8542 28.3438 39.5625C30.3229 39.2708 32.1458 38.8854 33.8125 38.4062C35.4792 37.9271 36.875 37.3854 38 36.7812C39.125 36.1771 39.7917 35.5625 40 34.9375V28.8125C38.9167 29.3958 37.7188 29.9167 36.4062 30.375C35.0938 30.8333 33.6979 31.2188 32.2188 31.5312C30.7396 31.8438 29.1875 32.0833 27.5625 32.25C25.9375 32.4167 24.25 32.5 22.5 32.5C20.75 32.5 19.0417 32.4167 17.375 32.25C15.7083 32.0833 14.1354 31.8438 12.6562 31.5312C11.1771 31.2188 9.79167 30.8333 8.5 30.375C7.20833 29.9167 6.04167 29.3958 5 28.8125V35C5.20833 35.625 5.86458 36.2292 6.96875 36.8125C8.07292 37.3958 9.45833 37.9271 11.125 38.4062C12.7917 38.8854 14.625 39.2708 16.625 39.5625C18.625 39.8542 20.5833 40 22.5 40Z" fill="#B0C6FF"/>
</svg>
